<?xml version="1.0" encoding="utf-8"?>
<!-- Generator: Adobe Illustrator 14.0.0, SVG Export Plug-In . SVG Version: 6.00 Build 43363)  -->
<!DOCTYPE svg PUBLIC "-//W3C//DTD SVG 1.1//EN" "http://www.w3.org/Graphics/SVG/1.1/DTD/svg11.dtd">
<svg version="1.1" xmlns="http://www.w3.org/2000/svg" xmlns:xlink="http://www.w3.org/1999/xlink" x="0px" y="0px" width="500px"
	 height="500px" viewBox="0 0 500 500" enable-background="new 0 0 500 500" xml:space="preserve">
<g id="Outline">
	<path id="Base_2_" d="M432,80.997C432,63.878,351.411,50,252,50S72,63.878,72,80.997c0,0.375,0.053,0.747,0.129,1.119
		C72.051,82.682,72,83.262,72,83.872c0,16.102,0,24.051,0,31.024c0,6.062,10.114,11.716,27.581,16.493
		C102.932,150.112,120,244.132,120,397.115C120,414.173,179.099,428,252,428s132-13.827,132-30.885
		c0,0,2.073-204.186,16.999-264.824c19.564-4.96,31.001-10.948,31.001-17.396c0-6.986,0-13.46,0-30.146
		c0-0.786-0.087-1.523-0.217-2.237C431.924,82.01,432,81.505,432,80.997z"/>
	<linearGradient id="Color_2_" gradientUnits="userSpaceOnUse" x1="79.0337" y1="237.3076" x2="424.626" y2="237.3076">
		<stop  offset="0" style="stop-color:#D0411D"/>
		<stop  offset="0.3804" style="stop-color:#F15A22"/>
		<stop  offset="0.908" style="stop-color:#EE2724"/>
	</linearGradient>
	<path id="Color_3_" fill="url(#Color_2_)" d="M424.626,82.104c0-16.251-77.364-29.427-172.795-29.427
		c-95.434,0-172.797,13.175-172.797,29.427c0,0.355,0.051,0.709,0.124,1.062c-0.075,0.538-0.124,1.088-0.124,1.667
		c0,15.286,0,22.833,0,29.452c0,5.755,9.71,11.123,26.478,15.657c3.076,17,19.602,116.632,19.602,262.674
		c0,16.194,56.733,29.32,126.718,29.32c69.982,0,126.716-13.126,126.716-29.32c0,0,1.99-204.251,16.319-261.818
		c18.78-4.708,29.76-10.393,29.76-16.514c0-6.632,0-12.778,0-28.618c0-0.747-0.084-1.446-0.207-2.125
		C424.553,83.066,424.626,82.587,424.626,82.104z"/>
	<g id="Highlights">
		<linearGradient id="SVGID_1_" gradientUnits="userSpaceOnUse" x1="191.0562" y1="122.958" x2="252.1172" y2="122.958">
			<stop  offset="0" style="stop-color:#FFFFFF"/>
			<stop  offset="1" style="stop-color:#FFFFFF"/>
		</linearGradient>
		<path fill="url(#SVGID_1_)" d="M195,102c0,0,28,2,46,0s11,12,1,12s-16,1-15,7s1,9-2,12s0,2,6,4s4,8-10,7s-21-7-11-8s12-3,8-7
			s-1-5,1-11s-3-6-13-7S185,104,195,102z"/>
		<linearGradient id="SVGID_2_" gradientUnits="userSpaceOnUse" x1="197" y1="292.1592" x2="254" y2="292.1592">
			<stop  offset="0" style="stop-color:#FFFFFF"/>
			<stop  offset="1" style="stop-color:#FFFFFF"/>
		</linearGradient>
		<path fill="url(#SVGID_2_)" d="M197,169c0,0,32.5,3.5,57,2c0,35-6,182-6,211c0,22,2,32-10,33c-16.971,1.414-18-2-24-8s4,0,8-29
			s-22-109-16-149S210,177,197,169z"/>
		<linearGradient id="SVGID_3_" gradientUnits="userSpaceOnUse" x1="238" y1="398.5" x2="248" y2="398.5">
			<stop  offset="0" style="stop-color:#FFFFFF"/>
			<stop  offset="1" style="stop-color:#FFFFFF"/>
		</linearGradient>
		<path fill="url(#SVGID_3_)" d="M248,382c0,23,0,33-10,33"/>
	</g>
	<g id="Shadows">
		<linearGradient id="SVGID_4_" gradientUnits="userSpaceOnUse" x1="269" y1="298.334" x2="384.667" y2="298.334">
			<stop  offset="0" style="stop-color:#000000;stop-opacity:0.8"/>
			<stop  offset="1" style="stop-color:#000000"/>
		</linearGradient>
		<path fill="url(#SVGID_4_)" d="M384.667,230.333c0,0-3.5,81.333-3.667,92.667c-10.666,12.667-26.666,30.001-50.333,43.334
			c-16.667-4.667-22.334-10-61.667-13.667C287.334,338.334,293,334,293,334s20.334,3.667,36.667,15.667
			C344.334,339.334,374.334,299,384.667,230.333z"/>
	</g>
	<g id="Rim">
		<path d="M80.5,120c0,0,154.5,61,336.501,3.333c1,2.5,1.5,3.5,1.5,3.5S259.667,193.667,80.5,124C81,121,80.5,120,80.5,120z"/>
	</g>
	<g id="Handle">
		<path d="M93.458,127.362c0,0-37.64,171.162,5.275,218.204c59.556,0,178.667,16,178.667,16s130.21-34.375,138.092-236.747
			c-2.627-12.427-24.598-21.182-33.355-2.542c0,23.965-9.865,150-106.475,198.306c-35.908,0-152.909-15.633-152.909-15.633
			s-21.668-5.554-8.956-113.181c-4.784,0-11.864,0-17.796,0C88.993,176.68,115.5,124.5,93.458,127.362z"/>
	</g>
	<g id="Lid">
		<path d="M96,81c0,13.062,66,17,156,17s156-3.749,156-18s-61-15-61-15s24,17.333,14,24c-25,7-201.333,4.667-230-1c-3-7-9-16,3-21
			C120,70.75,96,70.062,96,81z"/>
	</g>
	<g id="Layer_8">
		<linearGradient id="SVGID_5_" gradientUnits="userSpaceOnUse" x1="243.4995" y1="133" x2="243.4995" y2="171">
			<stop  offset="0.1656" style="stop-color:#000000;stop-opacity:0.87"/>
			<stop  offset="1" style="stop-color:#000000;stop-opacity:0.25"/>
		</linearGradient>
		<path fill="url(#SVGID_5_)" d="M106,133c0,0,64.333,23.334,145,22.667S381,139,381,139s-0.666,6.667-1.666,14
			c-15.667,5.333-78.334,18-128.001,18s-75.333-1.333-143-21C107.666,145.333,106,133,106,133z"/>
		<linearGradient id="SVGID_6_" gradientUnits="userSpaceOnUse" x1="457.5" y1="150.5" x2="457.5" y2="150.5">
			<stop  offset="0" style="stop-color:#000000;stop-opacity:0.35"/>
			<stop  offset="1" style="stop-color:#000000;stop-opacity:0.35"/>
		</linearGradient>
		<path fill="url(#SVGID_6_)" d="M457.5,150.5"/>
	</g>
</g>
<g id="Color_1_">
	<g id="Handle_1_">
		<path fill="#FFFFFF" d="M101,133.5c-3-2,0-0.5-3.333-2.5c0,0-38.108,165.651,3.417,210.566c57.627,0,172.881,16,172.881,16
			s128.813-36.982,136.44-230.203c-1.694-5.933-16.102-18.644-24.576-0.848c0,22.881-3.389,144.068-111.017,200
			c-34.746,0-153.39-16-153.39-16s-25.756-10.183-13.756-120.182C106.701,182.606,103.156,144.389,101,133.5z"/>
	</g>
</g>
<g id="Guide" display="none">
</g>
</svg>
